<svg xmlns="http://www.w3.org/2000/svg" width="830" height="830"><clipPath id="a"><path d="M0 0h830v830H0z"/></clipPath><g clip-path="url(#a)"><defs><linearGradient id="b" x1="698.129" x2="787.933" y1="508.419" y2="509.564" gradientUnits="userSpaceOnUse"><stop offset="0" stop-color="#022F6F"/><stop offset="1" stop-color="#0674C4"/></linearGradient></defs><path fill="url(#b)" d="M701.061 238.912c22.025 2.687 44.001 7.974 65.868 11.879l14.905 2.536c1.35.219 4.171.302 5.363.872.873.418 2.672 2.337 3.293 3.107 2.762 3.425 2.112 8.541 1.468 12.582l-21.963 163.393L742.677 629.5l-14.931 105.581-2.923 19.536c-.602 5.025-.829 10.258-1.937 15.199-.581 2.591-1.314 4.851-3.578 6.464-4.096 2.917-11.841 1.868-16.714 1.663l-.221-43.314c1.132-4.367 1.192-9.607 1.784-14.129l4.61-34.577 15.74-113.673 41.285-299.069c-3.927-1.665-9.955-2.043-14.219-2.846l-50.449-9.268-.063-22.155Z" transform="scale(.81055)"/><path fill="#437BA2" d="m568.822 469.199 2.496.31c.05 1.767.009 3.763.422 5.483l-.507 1.282c-.87.218-1.69.39-2.582.483.179-2.522.433-5.034.17-7.558ZM568.739 450.568c1.32-.077 4.094-.512 5.057.464l.242.324-.687 5.87-4.742-1.336.13-5.322ZM568.72 431.548l5.431.529 1.628.456c.124 1.964.059 3.513-.451 5.419l-.685.51-6.06-.853.137-6.06ZM568.78 413.272l6.237.457 3.106.516c.697 1.514-.055 3.722-.547 5.233-1.102.527-2.3.07-3.494-.115l-5.443-.692.14-5.399ZM568.728 395.038c3.756-.524 8.23.516 11.958 1.093.252 1.737-.246 3.84-.46 5.588l-5.953-.544c-1.878-.292-3.778-.298-5.675-.357l.13-5.78ZM568.942 376.828l14.45 1.784-.764 5.74c-1.796-.188-13.25-1.155-13.875-1.67-.137-1.947.066-3.91.19-5.854ZM569.002 358.55l16.691 2.311-.57 5.97c-5.207-.757-10.926-1.732-16.173-1.744l.052-6.537ZM568.857 341.434l10 1.645 9.003 1.556-1.043 5.307-17.86-2.44-.1-6.068ZM568.509 323.768l22.078 3.396-.587 5.024c-4.787.215-10.2-.93-15.038-1.207l-6.41-.774c-.27-2.162-.145-4.273-.043-6.439ZM568.582 312.297c-.396-3-.4-6.34-.127-9.36l.177 3.45c1.75.615 4.273.523 6.168.795l17.634 2.629-.903 5.366-22.95-2.88Z"/><defs><linearGradient id="c" x1="429.185" x2="757.019" y1="514.35" y2="429.968" gradientUnits="userSpaceOnUse"><stop offset="0" stop-color="#085194"/><stop offset="1" stop-color="#0A84D7"/></linearGradient></defs><path fill="url(#c)" d="m358.89 245.383-.051-.612c-.487-7.795-.073-15.902-.064-23.729.005-4.728-.555-10.16.242-14.792.372-2.165 1.161-4.354 2.733-5.948 3.127-3.17 6.986-3.187 11.229-3.214l45.985.377 161.318.068 74.765-.03c11.736-.006 24.039-.837 35.703.038 2.537.191 4.912 1.645 6.66 3.436 1.739 1.781 2.69 3.672 3.307 6.06.879 3.402.416 7.729.409 11.254l-.065 20.621.063 22.155.265 80.866.018 22.052c0 3.061.415 6.761-.084 9.758-.338 3.726-.332 7.847.156 11.549l-.09 14.152c-.125 2.672-.279 5.277.053 7.944l.377 13.851.124 7.486.055 13.63-.065 8.065-.009 14.486c-.152 2.399-.403 4.82-.234 7.221l-.03 15.245-.161 7.131.224 15.365-.173 6.661.1 15.887-.17 7.478.193 15.987-.16 6.566-.016 10.992c0 1.798-.204 3.691.278 5.428.324 3.114.01 6.213-.211 9.325-.051 4.203-1.276 12.636 1.144 15.962.487.669.629 1.145.828 1.936l-1.424 5.312c-1.632 5.071-.645 12.933-.652 18.302l-.014 33.83v43.898c.006 8.508-1.111 18.939.927 27.197l.221 43.314-85.842.042c.547-4.842.14-10.146.089-15.033-.055-5.228.212-10.679-.35-15.861l54.887-.05.636-371.129.277-108.384.036-31.227c.001-4.469.907-11.476-.879-15.551-3.173-1.247-7.21-.789-10.592-.795l-19.682-.022-56.596-.005-196.124.193.031 29.606c-2.661-1.518-6.493-.907-9.504-.921l-18.481-.046-.75-.505-.417 1.243-.578-.248.135-3.867Z" transform="scale(.81055)"/><path fill="#437BA2" d="m529.974 475.751 2.05.142.112 5.775c-1.152.419-2.68.224-3.909.202l-.752-.595c.981-1.809 1.283-3.87 2.499-5.524ZM502.363 241.393c3.333-.57 6.986-.25 10.382-.233l19.294.107.023 5.519-22.228.37c-1.954.022-6.786-.55-8.336.36l-1.302-.268.127-.078c.813-.275 1.229-.277 1.801-.966-.075-1.636.058-3.186.24-4.81ZM500.282 277.284l31.797.086.015 5.397-32.132.074c.119-.575.105-.36.109-.893.01-1.576.283-3.09.21-4.664Z"/><defs><linearGradient id="d" x1="617.298" x2="651.018" y1="586.285" y2="594.547" gradientUnits="userSpaceOnUse"><stop offset="0" stop-color="#41628B"/><stop offset="1" stop-color="#6F97B8"/></linearGradient></defs><path fill="url(#d)" d="m616.409 586.953 37.438-.002c-1.5 2.04-1.872 4.583-3.083 6.815l.928.734-35.388-.005c-.483-2.524-.238-5.02.105-7.542Z" transform="scale(.81055)"/><path fill="#437BA2" d="m500.882 403.734 31.037.41.049 5.475-31.826.178c.488-1.89.488-4.092.74-6.063ZM500.513 259.02l22.774.063c2.53.021 6.444-.46 8.766.357l-.115 5.645-30.937.458.649-.919c.032-2.484.53-3.69-1.137-5.603ZM499.72 348.536l32.36.093-.043 5.949-32.267.044-.05-6.086ZM499.634 330.59l32.376.458.02 5.673-32.37.172-.026-6.303ZM500.086 385.145l32.011.227-.054 5.677-32.045.423-.576-.788c.075-1.608-.143-4.152.664-5.539ZM499.703 421.947l32.373-.157-.052 5.767-32.35.418c-.45-1.977-.237-4.041.029-6.028ZM500.103 366.705l31.992.225.048 5.853-32.08.482.04-6.56ZM499.744 457.399l32.472.167-.068 6.038-32.443.052c.154-2.124.27-4.127.039-6.257ZM499.744 294.55l32.311.128.025 5.975-32.422.108.086-6.21ZM499.537 313.7l32.585.045.002 5.989-32.584.13c-.443-1.903-.23-4.246-.003-6.164ZM499.782 439.736l32.32.038-.01 6.011-32.524.438c-.416-1.916.085-4.511.214-6.487ZM499.701 493.982l32.451.168-.114 5.946-32.423.366.086-6.48ZM499.51 512.427l32.526.18.033 6.025-32.36.052c-.873-1.266-.333-4.65-.198-6.257ZM499.679 531.753l23.766.004c2.295.006 6.424-.512 8.528.268l-.065 5.997-32.341.167c-.484-1.604-.432-4.867.112-6.436ZM499.526 558.78c-.66-1.135-.204-5.483-.013-6.824l10.044.029 22.135-.009-.023 6.694c-1.156.15-2.225.128-3.383.074l-22.168.012c-1.85-.001-4.913-.48-6.592.025Z"/><path fill="#41648D" d="M499.526 558.78c-.66-1.135-.204-5.483-.013-6.824l10.044.029-.761.306c-3.597 1.314-5.514-1.442-8.008 3.064-.02 1.01.033 1.74.333 2.707l.797-.112c.878-.114 1.589-.038 2.456.071.77.097-.003.007 1.002-.058 1.53-.1 3.29.317 4.863.35l12.052.143c1.925.023 4.128-.161 5.995.288l-22.168.012c-1.85-.001-4.913-.48-6.592.025Z"/><path fill="#05488A" d="m290.897 198.894-.11 3.135.47.2.337-1.007.608.41 14.98.037c2.44.011 5.546-.484 7.703.746l.687.123c3.528.582 7.69.133 11.292.134l25.13.006 96.878.004 28.732.104c4.747.018 9.694-.396 14.398.215l.58.07c2.242.291 3.863 1.265 5.281 3.035 1.096 1.366 1.44 2.775 1.87 4.434l.208.761c1.352 5.08.473 10.531-.008 15.672-.238 2.548-.206 5.124-.288 7.68-.062 1.936-.523 4.287.26 6.097.83.272 1.591.513 2.458.643-.18 1.625-.314 3.175-.239 4.81-.572.69-.988.692-1.8.967l-.128.078c-1.29 2.43-.61 8.23-.636 11.102l.953.67c1.668 1.915 1.169 3.12 1.137 5.604l-.65.92-1.151.113.041 11.244.392.383c.072 1.574-.201 3.088-.211 4.664-.004.533.01.318-.11.893-.832 3.5-.247 8.08-.217 11.71l-.086 6.21c.038 4.088.555 8.934-.121 12.939-.227 1.918-.44 4.261.003 6.165l.094 10.725.027 6.303.058 11.643.051 6.086.333 12.083-.04 6.56-.173 8.422c-.008 1-.187 2.548.196 3.458-.807 1.387-.589 3.93-.664 5.539l.576.788c-1.007 2.892-.221 8.205-.18 11.37.348.335.638.659 1.064.892-.252 1.97-.252 4.172-.74 6.063l-.273 8.59c-.031 1.014.137 2.614-.166 3.56-.266 1.987-.478 4.05-.03 6.028l.11 11.761c-.13 1.976-.631 4.571-.215 6.487l.176 11.176c.23 2.13.115 4.133-.039 6.257-.007 3.857.378 8.3-.077 12.097-.278 2.044-.476 4.067-.085 6.113l.158 12.116-.086 6.48.043 9.066c-.01.775.13 2.242-.147 2.899-.135 1.607-.675 4.99.198 6.257l-.03 13.069c-.544 1.57-.596 4.832-.112 6.436.24 4.32.592 9.512-.054 13.767-.19 1.341-.647 5.689.013 6.825l.038 36.466-.016 7.586c.002.75-.154 2.062.147 2.72.455 4.2.239 8.618.284 12.855.041 3.962.37 8.26-.073 12.185-.57 1.08-.195 3.742-.194 5.067l-.01 18.216c-.005 3.03.363 6.592-.309 9.538-.361 1.59-1.206 3.338-2.35 4.507-.943.964-1.93 1.47-3.288 1.539-3.342.169-6.812-.171-10.17-.212l-21.32-.086-74.345-.084-109.24-.343-75.128-.483c-1.363-1.097-3.798-2.957-4.073-4.772-.418-2.754.057-6.33.071-9.146l-.006-22.79-.032-86.382-.284-198.637-.119-114.983c-.053-7.448-.936-15.703-.065-23.057.14-1.196.595-2.271 1.41-3.165.567-.622 1.714-1.717 2.446-2.1.86-.448 3.496-.213 4.501-.213l14.426.003 68.146-.052c.905-1.12.78-2.644.924-4.064Zm-61.06 18.416c-2.144.66-3.707 1.47-4.864 3.475-1.401 2.428-1.089 5.794-1.141 8.516l.177 44.129.037 95.602-.11 273.585c1.603 2.587 2.894 3.813 5.504 5.398l183.128.032 35.209.05 16.04.074c3.025-.01 6.486.21 9.399-.686 2.082-1.503 3.473-3.14 3.922-5.747.633-3.679.058-7.95.04-11.696v-25.236l-.12-101.335.415-206.033.191-55.158.032-14.997c.003-2.834.227-5.85-.273-8.638-.975-.946-2.177-.934-3.496-1.078-4.605-.504-9.362-.302-13.988-.235l-230.103-.022Z"/><path fill="#437BA2" d="m248.45 606.366 98.923.107-.08 7.058-98.843-.367v-6.798ZM253.132 587.035l94.577-.359-.101 6.892-4.95.02-94.079.438-.024-6.937 4.577-.054ZM247.32 281.288l110.49.05-.09 6.501-110.42-.256.02-6.295ZM247.392 262.152l110.063.154c.652 1.48.257 4.605.258 6.318l-110.396.081.075-6.553ZM303.397 332.452l159.487.33-.011 6.402-159.483-.069.007-6.663ZM303.64 313.159l159.32.17-.014 6.788-159.306-.027v-6.931ZM248.537 469.803l214.265-.028-.05 6.412-214.233.093.018-6.477ZM248.074 410.76l170.66.32c4.439.005 42.352-.6 44.177.376l-.117 5.98-214.722.136.002-6.811ZM248.474 489.2l214.32.016-.022 6.53-214.292.073-.006-6.62ZM248.217 352.22l214.767.053.033 6.444-214.745.318-.055-6.815ZM248.44 430.473l214.311.375-.134 6.432-214.154.044-.022-6.851ZM248.45 371.646l214.393.031-.015 6.491-214.367.298-.011-6.82ZM248.454 508.65l214.396.118-.045 6.733-214.347-.026-.004-6.824ZM248.326 528.548l51.933.038 96.096.003c7.89-.003 64.015-.797 66.6.213l-.078 6.388-214.512.157-.039-6.799ZM248.403 567.935l214.423.324-.013 6.803-214.382-.397-.028-6.73ZM248.488 450.288l214.327.145-.045 6.697-214.273-.015-.01-6.827ZM248.46 391.116l214.36.214-.017 6.611-214.343.196v-7.02ZM248.442 548.086l214.733.264-.082 6.794-214.65.065-.001-7.123Z"/></g></svg>